<svg width="80" height="80" fill="none" xmlns="http://www.w3.org/2000/svg"><path d="M28.767 2.767c-.777.482-.767.372-.767 8.701 0 6.644-.025 7.618-.195 7.552-.108-.041-3.15-1.787-6.761-3.881-4.695-2.722-6.68-3.806-6.971-3.805-.917.001-.938.032-6.54 9.736-2.933 5.082-5.416 9.324-5.518 9.427-.158.16-.15.303.054.979.142.468.315.791.424.791.228 0 13.374 7.605 13.374 7.737 0 .052-2.835 1.735-6.3 3.739-3.465 2.004-6.52 3.786-6.788 3.96-.564.366-.845.933-.735 1.485.122.608 10.773 18.944 11.15 19.194.82.545.926.497 8.023-3.615 3.639-2.109 6.653-3.834 6.699-3.834.046 0 .084 3.456.084 7.68 0 8.434-.027 8.144.805 8.636.334.197 1.413.218 11.195.218 9.964 0 10.856-.018 11.211-.228.8-.473.789-.347.789-8.707 0-6.236.032-7.615.175-7.56.096.037 3.137 1.783 6.758 3.881 4.73 2.74 6.698 3.814 6.992 3.813.92-.001.939-.029 6.542-9.719 2.933-5.072 5.385-9.416 5.448-9.652.082-.303.058-.568-.081-.9-.18-.432-.767-.802-6.949-4.384-3.713-2.152-6.752-3.957-6.752-4.01 0-.053 3.032-1.852 6.738-3.997 7.265-4.205 7.248-4.193 7.067-5.158-.069-.37-9.65-17.169-10.651-18.677-.372-.56-1.154-.885-1.74-.723-.238.066-3.293 1.779-6.79 3.808-3.497 2.028-6.447 3.722-6.557 3.765-.176.067-.2-.831-.2-7.551 0-8.36.011-8.234-.789-8.707-.355-.21-1.244-.227-11.232-.224-9.976.003-10.875.022-11.212.23m21.467 10.466c.019 4.895.065 8.9.103 8.9.037 0 3.48-1.977 7.65-4.395 4.171-2.417 7.656-4.412 7.746-4.433.093-.022 2.366 3.758 5.268 8.762 3.913 6.744 5.066 8.831 4.936 8.933-.093.073-3.595 2.113-7.782 4.533-4.187 2.42-7.614 4.43-7.615 4.467-.001.037 3.424 2.047 7.611 4.467 4.187 2.42 7.691 4.46 7.786 4.533.134.103-.971 2.109-4.883 8.861-2.78 4.8-5.102 8.773-5.158 8.83-.057.056-3.521-1.881-7.699-4.306-4.179-2.425-7.672-4.44-7.763-4.477-.131-.055-.173 1.804-.2 8.845l-.034 8.914H29.8l-.034-8.914c-.027-7.041-.069-8.9-.2-8.846-.091.038-3.585 2.052-7.764 4.477-4.178 2.424-7.644 4.361-7.702 4.303-.057-.057-2.378-4.031-5.157-8.829-3.908-6.749-5.014-8.755-4.88-8.858.095-.073 3.599-2.113 7.786-4.533 4.187-2.42 7.612-4.43 7.611-4.467-.001-.037-3.428-2.047-7.616-4.467-4.187-2.42-7.69-4.46-7.783-4.533-.129-.102 1.031-2.202 4.937-8.933 2.904-5.006 5.176-8.784 5.269-8.762.09.021 3.575 2.016 7.746 4.433 4.17 2.418 7.613 4.395 7.651 4.395.038 0 .069-3.98.069-8.844 0-4.865.041-8.885.09-8.934.049-.05 4.654-.075 10.233-.056l10.144.034.034 8.9" fill-rule="evenodd" fill="#000"/></svg>