<svg width="45" height="45" viewBox="0 0 45 45" fill="none" xmlns="http://www.w3.org/2000/svg">
<path d="M39.9011 21.8027C39.2082 21.6698 38.5013 21.6557 37.8083 21.7537C37.6123 18.506 35.2395 15.7203 31.9709 15.0832C31.9639 15.0832 31.9569 15.0832 31.9569 15.0832C31.271 9.88969 27.2884 5.63412 22.1017 4.63313C15.7463 3.38728 9.58683 7.21589 7.88597 13.4034C4.07134 14.2853 1.04755 17.3861 0.291692 21.2496C-0.772224 26.6812 2.78348 31.9727 8.22197 33.0367C8.306 33.0577 8.85892 33.0646 11.4627 33.1486C13.2266 37.4953 17.5031 40.603 22.5007 40.603C26.7003 40.603 30.396 38.4121 32.5168 35.1154C32.5168 35.1085 32.5238 35.1085 32.5238 35.1015C32.7898 34.6814 33.0278 34.2546 33.2378 33.8066L37.5913 33.9396C40.923 34.5625 44.1427 32.3717 44.7797 29.04C45.4377 25.7083 43.2539 22.4607 39.9011 21.8027ZM12.0296 27.9971C12.1415 26.2753 12.6735 24.6654 13.5205 23.2655H16.7822C16.3972 24.6934 16.1662 26.2892 16.1102 27.9971H12.0296ZM14.5353 35.5284H17.2231C17.6641 36.7114 18.217 37.7333 18.8539 38.5382C17.1671 37.9153 15.6833 36.8724 14.5353 35.5284ZM18.245 34.1286C17.8321 32.7217 17.5661 31.1119 17.5101 29.397H27.4912C27.4352 31.1119 27.1692 32.7217 26.7563 34.1286H18.245ZM18.735 21.8657C19.6659 19.6329 21.0168 18.184 22.5007 18.184C23.9845 18.184 25.3354 19.6329 26.2664 21.8657H18.735ZM26.1474 38.5382C26.7843 37.7333 27.3372 36.7114 27.7782 35.5284H30.4659C29.318 36.8724 27.8341 37.9153 26.1474 38.5382ZM28.8911 27.9971C28.8351 26.2892 28.6042 24.6934 28.2192 23.2655H31.4809C32.3278 24.6653 32.8597 26.2752 32.9718 27.9971H28.8911ZM43.4078 28.774C42.9809 30.9928 41.427 32.6377 37.6893 32.5397L33.8046 32.4207C34.1896 31.2519 34.4066 29.9989 34.4066 28.6971C34.4066 25.4634 33.0837 22.4886 30.9419 20.3188C28.793 18.149 25.8183 16.7841 22.5006 16.7841C15.8792 16.7841 10.5947 22.2226 10.5947 28.6971C10.5947 29.747 10.7417 30.7619 11.0006 31.7348L8.43186 31.6508C3.78429 30.7128 0.753557 26.1772 1.6634 21.5157C2.34236 18.065 5.12111 15.3212 8.57881 14.6843C8.8518 14.6353 9.0688 14.4323 9.13182 14.1593C10.4897 8.45488 16.0681 4.87123 21.8357 6.0051C26.5952 6.92901 30.207 10.9396 30.6199 15.7553C30.655 16.0912 30.921 16.3642 31.2639 16.3922C34.0916 16.6302 36.6324 19.311 36.4015 22.5797C36.3665 23.0627 36.8284 23.4406 37.3045 23.3007C38.0534 23.0697 38.8583 23.0277 39.6352 23.1746C42.2109 23.6785 43.9118 26.1913 43.4078 28.774Z" fill="#063B26"/>
</svg>
