<svg width="45" height="45" viewBox="0 0 45 45" fill="none" xmlns="http://www.w3.org/2000/svg">
<g clip-path="url(#clip0_2551_116)">
<path d="M40.964 0.851562H4.0352C1.86544 0.851562 0.101562 2.61535 0.101562 4.7852V31.5158C0.101562 33.6856 1.86544 35.4494 4.0352 35.4494H19.1189V42.7498H14.5903C14.2054 42.7498 13.8904 43.0648 13.8904 43.4498C13.8904 43.8418 14.2054 44.1497 14.5903 44.1497H30.4089C30.7938 44.1497 31.1088 43.8418 31.1088 43.4498C31.1088 43.0648 30.7938 42.7498 30.4089 42.7498H25.8803V35.4494H40.964C43.1338 35.4494 44.8977 33.6856 44.8977 31.5158V4.7852C44.8977 2.61535 43.1338 0.851562 40.964 0.851562ZM23.3255 32.2857H21.6737C21.2887 32.2857 20.9737 31.9708 20.9737 31.5858C20.9737 31.2008 21.2887 30.8858 21.6737 30.8858H23.3255C23.7105 30.8858 24.0255 31.2008 24.0255 31.5858C24.0255 31.9708 23.7105 32.2857 23.3255 32.2857ZM43.4977 27.7222H1.50148V4.7852C1.50148 3.38536 2.63536 2.2514 4.03528 2.2514H40.964C42.3639 2.2514 43.4978 3.38527 43.4978 4.7852V27.7222H43.4977Z" fill="#063B26"/>
<path d="M11.2028 14.4994C13.1357 14.4994 14.7026 12.9326 14.7026 10.9997C14.7026 9.06688 13.1357 7.5 11.2028 7.5C9.27 7.5 7.70312 9.06688 7.70312 10.9997C7.70312 12.9326 9.27 14.4994 11.2028 14.4994Z" fill="#063B26"/>
<path d="M16.2632 21.8529H6.13517C5.26725 21.8529 4.59533 21.0759 4.72128 20.215C5.17629 17.0164 7.96198 14.6016 11.2027 14.6016C14.4364 14.6016 17.2221 17.0164 17.6841 20.215C17.8031 21.0759 17.1382 21.8529 16.2632 21.8529Z" fill="#063B26"/>
<path d="M29.03 10.4312H40.8896C41.2762 10.4312 41.5896 10.1178 41.5896 9.73121C41.5896 9.34467 41.2762 9.03125 40.8896 9.03125H29.03C28.6435 9.03125 28.3301 9.34467 28.3301 9.73121C28.3302 10.1178 28.6435 10.4312 29.03 10.4312Z" fill="#063B26"/>
<path d="M29.03 16.0015H40.8896C41.2762 16.0015 41.5896 15.6881 41.5896 15.3015C41.5896 14.915 41.2762 14.6016 40.8896 14.6016H29.03C28.6435 14.6016 28.3301 14.915 28.3301 15.3015C28.3301 15.6881 28.6435 16.0015 29.03 16.0015Z" fill="#063B26"/>
<path d="M29.03 21.5718H40.8896C41.2762 21.5718 41.5896 21.2584 41.5896 20.8718C41.5896 20.4853 41.2762 20.1719 40.8896 20.1719H29.03C28.6435 20.1719 28.3301 20.4853 28.3301 20.8718C28.3302 21.2584 28.6435 21.5718 29.03 21.5718Z" fill="#063B26"/>
</g>
<defs>
<clipPath id="clip0_2551_116">
<rect width="45" height="45" fill="white"/>
</clipPath>
</defs>
</svg>
