<svg width="30" height="26" viewBox="0 0 30 26" fill="none" xmlns="http://www.w3.org/2000/svg">
<path d="M28.9057 22.4278V3.56678C29.5077 3.31945 29.9323 2.73152 29.9323 2.04563C29.9323 1.13572 29.195 0.398438 28.2851 0.398438H1.71555C0.805645 0.398438 0.0683594 1.13572 0.0683594 2.04563C0.0683594 2.73152 0.492988 3.31951 1.09492 3.56678V22.4278C0.49293 22.6751 0.0683594 23.2631 0.0683594 23.949C0.0683594 24.8589 0.805645 25.5961 1.71555 25.5961H28.2852C29.1951 25.5961 29.9324 24.8589 29.9324 23.949C29.9324 23.263 29.5077 22.6751 28.9057 22.4278ZM6.97902 22.3018H5.73783V17.2995C5.73783 17.0429 5.94777 16.8329 6.20447 16.8329H6.51244C6.76908 16.8329 6.97908 17.0429 6.97908 17.2995L6.97902 22.3018ZM12.7418 22.3018H11.5006V13.4919C11.5006 13.2306 11.706 13.0253 11.9673 13.0253H12.2753C12.5319 13.0253 12.7419 13.2306 12.7419 13.4919L12.7418 22.3018ZM18.5 22.3018H17.2588V14.7611C17.2588 14.5045 17.4688 14.2945 17.7255 14.2945H18.0334C18.2948 14.2945 18.5001 14.5044 18.5001 14.7611V22.3018H18.5ZM24.2628 22.3018H23.0216V10.1042C23.0216 9.84756 23.2316 9.63756 23.4883 9.63756H23.7963C24.0529 9.63756 24.2629 9.84756 24.2629 10.1042V22.3018H24.2628ZM27.9725 22.3018H25.1961V10.1042C25.1961 9.32959 24.5662 8.70434 23.7963 8.70434H23.4883C22.7137 8.70434 22.0884 9.32965 22.0884 10.1042V22.3018H19.4333V14.7611C19.4333 13.9865 18.808 13.3612 18.0334 13.3612H17.7255C16.9555 13.3612 16.3256 13.9865 16.3256 14.7611V22.3018H13.6752V13.4919C13.6752 12.7173 13.0452 12.092 12.2753 12.092H11.9673C11.1927 12.092 10.5675 12.7174 10.5675 13.4919V22.3018H7.91236V17.2995C7.91236 16.5296 7.28705 15.8996 6.5125 15.8996H6.20453C5.43461 15.8996 4.80467 16.5296 4.80467 17.2995V22.3018H2.02814V3.69275H27.9725V22.3018Z" fill="#063B26"/>
<path d="M5.42186 12.2979L21.319 6.87893L20.4176 8.12375C20.2663 8.33246 20.3128 8.62432 20.5215 8.77537C20.7312 8.92689 21.0227 8.87902 21.1731 8.67102L22.9317 6.24219C23.0079 6.13701 23.0476 5.961 22.9881 5.80185C22.9866 5.7981 22.9865 5.79406 22.985 5.79037C22.9132 5.61564 22.7395 5.50977 22.5825 5.50033L19.6343 5.02203C19.3746 4.97943 19.1404 5.15393 19.0989 5.40799C19.0579 5.66252 19.2306 5.90193 19.4848 5.94342L20.6278 6.12881L5.12109 11.4147C4.87682 11.4976 4.7465 11.7629 4.82988 12.0069C4.91291 12.2506 5.17852 12.3816 5.42186 12.2979Z" fill="#063B26"/>
</svg>
