<svg width="45" height="45" viewBox="0 0 45 45" fill="none" xmlns="http://www.w3.org/2000/svg">
<path d="M35.1831 18.7423H30.3675C29.9825 18.7423 29.6675 19.0572 29.6675 19.4422V31.5162C29.6675 35.4708 26.4548 38.6836 22.5001 38.6836C18.5454 38.6836 15.3327 35.4708 15.3327 31.5162V19.4421C15.3327 19.0572 15.0177 18.7422 14.6328 18.7422H9.81715C9.43219 18.7422 9.11719 19.0571 9.11719 19.4421V31.5161C9.11719 38.8935 15.1227 44.899 22.5 44.899C29.8774 44.899 35.8829 38.8935 35.8829 31.5161V19.4421C35.883 19.0572 35.5681 18.7423 35.1831 18.7423ZM34.4831 31.5161C34.4831 38.1236 29.1076 43.499 22.5002 43.499C15.8928 43.499 10.5173 38.1236 10.5173 31.5161V24.7547H13.933V31.5161C13.933 36.2407 17.7756 40.0834 22.5002 40.0834C27.2248 40.0834 31.0674 36.2407 31.0674 31.5161V24.7547H34.4831V31.5161Z" fill="#030E09"/>
<path d="M22.4999 0.101562C16.7604 0.101562 12.0918 4.77014 12.0918 10.5097C12.0918 16.2492 16.7604 20.9178 22.4999 20.9178C28.2394 20.9178 32.908 16.2492 32.908 10.5097C32.908 4.77014 28.2394 0.101562 22.4999 0.101562ZM28.1764 13.7084L22.9689 13.1553L22.9198 13.1904L24.4247 16.5501C24.6696 17.0821 24.4737 17.726 23.9697 18.02L23.7457 18.153C23.2418 18.447 22.5768 18.307 22.2338 17.824L20.008 14.8353C19.42 14.9823 18.8111 14.7303 18.5032 14.2053L16.6343 11.0135C16.2564 10.3696 16.4734 9.53671 17.1173 9.15869L19.7281 7.62579L21.7859 2.81721C22.1639 1.94929 23.3538 1.90033 23.8227 2.69126L25.6776 5.85497L25.8665 5.743C26.6995 5.25301 27.7564 5.53997 28.2323 6.3519C28.7153 7.17781 28.4423 8.24173 27.6234 8.71766L27.4204 8.83666L29.2753 12.0004C29.7583 12.8194 29.0793 13.8134 28.1764 13.7084Z" fill="#030E09"/>
<path d="M26.9167 7.51078L26.7137 7.62275L26.3848 7.0628L26.5808 6.9438C26.7347 6.85283 26.9307 6.90179 27.0287 7.0628C27.1196 7.21679 27.0637 7.41981 26.9167 7.51078Z" fill="#030E09"/>
<path d="M21.8628 12.199C21.6878 12.3041 19.707 13.501 19.707 13.501L17.8242 10.3652L20.029 9.07031L21.0509 10.8132L21.8628 12.199Z" fill="#030E09"/>
<path d="M22.6756 16.0691L21.2617 14.1653L21.7027 13.9062L22.6756 16.0691Z" fill="#030E09"/>
<path d="M27.8068 12.2571L23.2432 11.7741L22.1513 9.91928L21.0664 8.06443L22.8723 3.84375C23.9222 5.62872 26.113 9.35933 27.8068 12.2571Z" fill="#030E09"/>
</svg>
