<svg width="65" height="65" viewBox="0 0 65 65" fill="none" xmlns="http://www.w3.org/2000/svg">
<path d="M16.7647 20.39C16.3697 19.995 15.73 19.995 15.3351 20.39C12.4412 23.2834 10.8477 27.1364 10.8477 31.2387C10.8477 35.3411 12.4422 39.1941 15.3361 42.088C15.731 42.483 16.3708 42.483 16.7657 42.088C17.1607 41.6931 17.1607 41.0534 16.7657 40.6584C14.2539 38.1461 12.8698 34.801 12.8698 31.2389C12.8698 27.6766 14.253 24.3315 16.7648 21.8198C17.1595 21.4246 17.1595 20.7849 16.7647 20.39Z" fill="#030E09"/>
<path d="M22.7319 11.574C22.6005 11.0281 22.0545 10.6843 21.5186 10.8056C21.3266 10.8461 21.1345 10.8966 20.9424 10.9471C20.7907 11.4021 20.6694 11.8571 20.5683 12.2918C20.5076 12.5849 20.5784 12.8782 20.7502 13.1006C21.1445 12.9894 21.5489 12.8782 21.9635 12.7872C22.3678 12.6962 22.6509 12.3827 22.7319 12.0087C22.7319 11.9986 22.7421 11.9784 22.7421 11.9683C22.7621 11.8368 22.7621 11.7054 22.7319 11.574ZM46.2786 25.2329C46.2179 25.0205 46.1472 24.8082 46.0763 24.596C45.8944 24.0703 45.3282 23.7872 44.7923 23.9591C44.6508 24.0096 44.5294 24.0804 44.4283 24.1815C44.3677 24.232 44.3273 24.2825 44.2868 24.3331C44.1149 24.5858 44.0542 24.9195 44.1554 25.2431C44.6306 26.6585 44.9238 28.084 45.0551 29.5196C45.3382 29.2567 45.4292 28.8422 45.2978 28.458C44.8126 27.1538 45.3383 25.9102 46.2786 25.2329Z" fill="#030E09"/>
<path d="M51.5152 18.4451C50.5245 18.0002 49.8875 17.0195 49.8875 15.9377C49.8875 14.856 50.5244 13.8651 51.5152 13.4203C51.9499 13.2282 52.1927 12.7428 52.0915 12.2778C51.6972 10.5591 51.0097 8.91114 50.0594 7.37437C49.7964 6.95987 49.2909 6.78798 48.836 6.9699C47.8351 7.35406 46.6825 7.11145 45.9242 6.34313C45.1558 5.58484 44.9132 4.43223 45.2975 3.41115C45.4592 2.96631 45.2873 2.45075 44.883 2.19799C43.3664 1.25764 41.7286 0.570192 39.9997 0.176003C39.5347 0.064792 39.0493 0.29737 38.8472 0.742214C38.3922 1.73296 37.4115 2.37001 36.3298 2.37001C35.2378 2.37001 34.2673 1.74324 33.8123 0.742214C33.6102 0.29737 33.1248 0.064792 32.6598 0.176003C30.9106 0.580349 29.2728 1.25777 27.7765 2.19799C27.3721 2.46078 27.2003 2.96631 27.362 3.41115C27.7462 4.43223 27.5036 5.58484 26.7353 6.34313C25.977 7.11158 24.8245 7.35419 23.8134 6.9699C23.3686 6.79801 22.8529 6.95974 22.5901 7.37437C21.8824 8.50667 21.3263 9.74014 20.9421 10.9433C20.7904 11.3983 20.6692 11.8533 20.568 12.288C20.5073 12.5811 20.5782 12.8744 20.7499 13.0968C20.851 13.2383 20.9825 13.3495 21.1443 13.4203C22.125 13.8651 22.7619 14.8558 22.7619 15.9377C22.7619 17.0196 22.125 18.0002 21.1341 18.4451C20.6994 18.6371 20.4567 19.1225 20.5679 19.5977C20.9724 21.3367 21.6497 22.9847 22.5899 24.4911C22.8528 24.9056 23.3683 25.0673 23.8132 24.8954C24.8242 24.5113 25.9767 24.7539 26.735 25.5324C27.5035 26.2906 27.7461 27.4432 27.3618 28.4542C27.2 28.899 27.3719 29.4045 27.7763 29.6675C29.9803 31.0425 32.4573 31.7198 32.892 31.7198C33.2863 31.7198 33.6503 31.4872 33.812 31.1234C34.2569 30.1325 35.2477 29.4956 36.3295 29.4956C37.4012 29.4956 38.392 30.1325 38.847 31.1334C39.0491 31.5681 39.5344 31.8007 39.9995 31.6894C41.7283 31.2951 43.3661 30.6077 44.8827 29.6675C44.9434 29.627 45.0041 29.5764 45.0546 29.5158C45.3377 29.2528 45.4287 28.8383 45.2973 28.4542C44.812 27.15 45.3377 25.9064 46.2781 25.2291C46.9757 24.7337 47.9159 24.5516 48.8561 24.9056C49.3111 25.0673 49.8166 24.8954 50.0694 24.4911C51.0096 22.9745 51.6972 21.3265 52.0914 19.5876C52.1927 19.1225 51.9501 18.6371 51.5152 18.4451ZM48.7248 22.7824C47.0465 22.4791 45.4795 23.0756 44.428 24.1776C44.3673 24.2282 44.3269 24.2787 44.2864 24.3292C43.3664 25.3706 42.8912 26.7962 43.1743 28.3228C42.2441 28.8385 41.2736 29.2428 40.2625 29.5361C39.3728 28.2622 37.9069 27.4736 36.3296 27.4736C34.7423 27.4736 33.2763 28.2621 32.3967 29.5361C31.3757 29.2429 30.405 28.8385 29.4849 28.3329C29.7681 26.8063 29.2827 25.219 28.1706 24.1069C27.0483 22.9746 25.451 22.4893 23.9243 22.7724C23.4187 21.8524 23.0143 20.8818 22.7211 19.8606C23.995 18.9811 24.7836 17.5252 24.7836 15.9379C24.7836 14.3506 23.9951 12.8845 22.7313 12.005C22.7313 11.9948 22.7415 11.9746 22.7415 11.9646C23.0246 10.9536 23.4289 9.99316 23.9243 9.09332C25.4509 9.37642 27.0483 8.90124 28.1706 7.77897C29.2827 6.65671 29.7679 5.06941 29.4849 3.53264C30.405 3.02712 31.3755 2.62277 32.3967 2.32951C33.2864 3.60336 34.7524 4.39199 36.3296 4.39199C37.9068 4.39199 39.3727 3.60336 40.2625 2.32951C41.2736 2.62277 42.2441 3.02712 43.1743 3.5428C42.8912 5.06941 43.3765 6.65671 44.4886 7.77897C45.6109 8.90124 47.2082 9.37642 48.7248 9.09332C49.2405 10.0235 49.6448 11.0042 49.928 12.0051C48.6541 12.8846 47.8655 14.3507 47.8655 15.938C47.8655 17.5151 48.654 18.9812 49.928 19.8607C49.645 20.8715 49.2405 21.8522 48.7248 22.7824Z" fill="#030E09"/>
<path d="M36.3295 21.3075C39.2945 21.3075 41.6981 18.9039 41.6981 15.9389C41.6981 12.9739 39.2945 10.5703 36.3295 10.5703C33.3645 10.5703 30.9609 12.9739 30.9609 15.9389C30.9609 18.9039 33.3645 21.3075 36.3295 21.3075Z" fill="#030E09"/>
<path d="M58.6734 63.7308C57.1872 65.227 54.7709 65.227 53.2745 63.7308L40.9703 51.4266C40.576 51.0324 40.576 50.3853 40.9703 49.991L42.2341 48.7272L40.2525 46.7456C36.2691 50.365 31.2343 52.1949 26.1893 52.1949C14.6636 52.1949 5.2207 42.8936 5.2207 31.2466C5.2207 21.3386 12.0249 13.2302 20.9421 10.9453C20.7904 11.4003 20.6691 11.8553 20.5679 12.29C20.5073 12.5831 20.5781 12.8764 20.7499 13.0988C13.0155 15.404 7.24269 22.5822 7.24269 31.2466C7.24269 48.0397 27.6956 56.5222 39.5751 44.6326C43.6394 40.5885 45.5806 35.0583 45.0548 29.5178C45.3379 29.2549 45.4289 28.8404 45.2975 28.4562C44.8122 27.152 45.3379 25.9084 46.2782 25.2311C48.4014 32.3285 46.6624 39.8809 41.6984 45.3302L43.6699 47.2916L44.9437 46.0278C45.338 45.6335 45.9749 45.6335 46.3693 46.0278L58.6734 58.332C60.1697 59.8282 60.1697 62.2445 58.6734 63.7308Z" fill="#030E09"/>
</svg>
