<svg width="45" height="45" viewBox="0 0 45 45" fill="none" xmlns="http://www.w3.org/2000/svg">
<path d="M25.95 25.7264H35.6123C35.433 28.0287 34.4791 30.1732 32.9391 31.7367C31.399 33.3003 29.3845 34.1693 27.293 34.1725C27.1065 34.1725 26.9276 34.2543 26.7958 34.4C26.6639 34.5457 26.5898 34.7433 26.5898 34.9493V39.9492C26.5898 40.1553 26.6639 40.3529 26.7958 40.4986C26.9276 40.6443 27.1065 40.7261 27.293 40.7261C35.168 40.7261 41.5734 33.6489 41.5734 24.9495V8.46437C41.5734 8.25833 41.4994 8.06073 41.3675 7.91504C41.2356 7.76935 41.0568 7.6875 40.8703 7.6875H25.95C25.7635 7.6875 25.5847 7.76935 25.4528 7.91504C25.321 8.06073 25.2469 8.25833 25.2469 8.46437V24.9495C25.2469 25.1555 25.321 25.3531 25.4528 25.4988C25.5847 25.6445 25.7635 25.7264 25.95 25.7264ZM26.6531 9.24123H40.1672V24.9495C40.1672 32.5317 34.77 38.7467 27.9961 39.1506V35.6982C33.0487 35.2989 37.0481 30.6299 37.0481 24.9495C37.0481 24.7435 36.974 24.5459 36.8422 24.4002C36.7103 24.2545 36.5315 24.1726 36.345 24.1726H26.6531V9.24123ZM4.86328 25.7264H14.527C14.348 28.0288 13.3942 30.1735 11.8541 31.7371C10.3139 33.3007 8.29926 34.1697 6.20766 34.1725C6.02118 34.1725 5.84233 34.2543 5.71047 34.4C5.57861 34.5457 5.50453 34.7433 5.50453 34.9493V39.9492C5.50453 40.1553 5.57861 40.3529 5.71047 40.4986C5.84233 40.6443 6.02118 40.7261 6.20766 40.7261C14.0827 40.7261 20.4881 33.6489 20.4881 24.9495V8.46437C20.4881 8.25833 20.414 8.06073 20.2822 7.91504C20.1503 7.76935 19.9715 7.6875 19.785 7.6875H4.86328C4.6768 7.6875 4.49796 7.76935 4.3661 7.91504C4.23424 8.06073 4.16016 8.25833 4.16016 8.46437V24.9495C4.16016 25.1555 4.23424 25.3531 4.3661 25.4988C4.49796 25.6445 4.6768 25.7264 4.86328 25.7264ZM5.56641 9.24123H19.0819V24.9495C19.0819 32.5317 13.6833 38.7467 6.91078 39.1506V35.6982C11.9634 35.2989 15.9614 30.6299 15.9614 24.9495C15.9614 24.7435 15.8873 24.5459 15.7555 24.4002C15.6236 24.2545 15.4448 24.1726 15.2583 24.1726H5.56641V9.24123Z" fill="#030E09"/>
</svg>
