<svg width="30" height="30" viewBox="0 0 30 30" fill="none" xmlns="http://www.w3.org/2000/svg">
<path d="M22.7305 18.6067C27.1868 13.9218 29.3379 8.00967 29.6319 1.73352C29.6739 0.795607 28.8947 0.0256853 27.9754 0.0723259C22.1519 0.338342 16.459 2.73213 11.5968 7.55235L7.52783 6.79637C7.23856 6.73572 6.9399 6.80569 6.69727 6.99236L0.76178 11.654C0.0711944 12.1859 0.327835 13.2825 1.18178 13.4551L6.24 14.4724C5.9134 15.0184 5.59143 15.5783 5.27877 16.1569C4.9708 16.7309 5.05483 17.5054 5.55879 18.0141L12.0216 24.4769C12.4462 24.8969 13.1462 25.0835 13.7667 24.8081C14.4574 24.5002 15.1293 24.1689 15.7825 23.8236L16.8465 29.1198C17.0191 29.9643 18.1063 30.2304 18.6523 29.549L23.3092 23.5995C23.4912 23.3709 23.5612 23.0722 23.5099 22.7876L22.7305 18.6067ZM17.159 21.9431L8.26043 13.0445C11.2048 8.73758 15.0918 5.03258 19.9401 2.89543L27.0374 9.99283C25.1803 14.9297 21.8252 18.9987 17.159 21.9431Z" fill="#063B26"/>
<path d="M21.4191 8.83523C20.0611 7.48201 17.854 7.48201 16.5008 8.83523C15.143 10.1931 15.143 12.4002 16.5008 13.7581C17.854 15.1113 20.0611 15.1113 21.4191 13.7581C22.7722 12.4002 22.7722 10.1931 21.4191 8.83523ZM20.7564 13.0955C19.7671 14.0894 18.1526 14.0894 17.1587 13.0955C16.1648 12.1062 16.1648 10.4917 17.1587 9.49781C18.1526 8.50388 19.7671 8.50388 20.7564 9.49781C21.7503 10.4917 21.7503 12.1062 20.7564 13.0955Z" fill="#063B26"/>
<path d="M8.70856 24.9722C7.89194 25.7889 3.10905 28.0007 2.56308 28.248C2.17114 28.43 1.76515 28.024 1.94714 27.6273C2.19446 27.0861 4.40626 22.2985 5.21814 21.4865C6.17937 20.5253 7.74728 20.5253 8.70851 21.4865C9.6698 22.4478 9.6698 24.011 8.70856 24.9722Z" fill="#063B26"/>
</svg>
