<svg width="65" height="65" viewBox="0 0 65 65" fill="none" xmlns="http://www.w3.org/2000/svg">
<path d="M62.9688 4.0625C62.9688 2.93973 62.0603 2.03125 60.9375 2.03125C42.347 2.03125 35.5926 6.22273 31.0639 10.7514C29.5567 12.2586 27.9927 14.1573 26.4398 16.25H21.2982C17.4997 16.25 13.9288 17.7298 11.243 20.4156L4.65766 27.0014C4.37326 27.2853 4.17958 27.6472 4.10119 28.0413C4.02281 28.4354 4.06325 28.8439 4.21738 29.215C4.3709 29.5862 4.63117 29.9035 4.9652 30.1267C5.29924 30.3499 5.69201 30.469 6.09375 30.4688H17.3773C14.5463 35.4489 12.5831 39.3539 12.4018 39.7165C12.2111 40.0978 12.1452 40.5295 12.2136 40.9503C12.2819 41.3711 12.481 41.7598 12.7827 42.0611L22.9389 52.2173C23.24 52.5193 23.6287 52.7186 24.0496 52.787C24.4705 52.8554 24.9023 52.7893 25.2835 52.5982C25.6461 52.4169 29.5511 50.4537 34.5312 47.6227V58.9062C34.531 59.1731 34.5833 59.4373 34.6853 59.6839C34.7873 59.9305 34.9369 60.1545 35.1256 60.3432C35.3143 60.5318 35.5383 60.6814 35.7849 60.7834C36.0314 60.8854 36.2957 60.9378 36.5625 60.9375C36.8292 60.9376 37.0934 60.885 37.3398 60.7829C37.5862 60.6808 37.8101 60.5311 37.9986 60.3423L44.5844 53.7565C47.2702 51.0707 48.75 47.5003 48.75 43.7018V38.5602C50.8427 37.0073 52.7414 35.4433 54.2486 33.9361C58.7773 29.4074 62.9688 22.653 62.9688 4.0625ZM10.9972 26.4062L14.1157 23.2878C15.0567 22.3416 16.1761 21.5915 17.4089 21.0808C18.6418 20.5701 19.9637 20.3089 21.2982 20.3125H23.596C22.2666 22.313 20.9848 24.3448 19.7519 26.4062H10.9972ZM44.6875 43.7018C44.691 45.0364 44.4299 46.3583 43.9192 47.5913C43.4085 48.8242 42.6584 49.9437 41.7122 50.8848L38.5938 54.0028V45.2481C40.6552 44.0152 42.687 42.7334 44.6875 41.404V43.7018ZM24.766 48.2996L16.7004 40.234C19.0709 35.6637 27.303 20.2587 33.9361 13.6236C37.6873 9.87238 43.3387 6.39133 58.8885 6.11152C58.6087 21.6612 55.1276 27.3127 51.3764 31.0639C44.7408 37.697 29.3363 45.9291 24.766 48.2996ZM11.5923 47.3139C11.326 47.0464 10.9902 46.8588 10.6228 46.7722C10.2554 46.6856 9.87111 46.7035 9.51336 46.8239C2.11656 49.2898 2.03125 60.4632 2.03125 60.9375C2.03125 62.0603 2.93973 62.9688 4.0625 62.9688C4.5368 62.9688 15.7107 62.8834 18.1761 55.4866C18.2955 55.1288 18.3129 54.7447 18.2264 54.3776C18.1398 54.0104 17.9527 53.6745 17.6861 53.4077L11.5923 47.3139ZM6.25828 58.7417C6.59953 56.1727 7.54559 52.7094 9.73934 51.2058L13.7937 55.2602C12.2906 57.4544 8.8273 58.4005 6.25828 58.7417ZM42.6562 14.2188C38.1753 14.2188 34.5312 17.8628 34.5312 22.3438C34.5312 26.8247 38.1753 30.4688 42.6562 30.4688C47.1372 30.4688 50.7812 26.8247 50.7812 22.3438C50.7812 17.8628 47.1372 14.2188 42.6562 14.2188ZM42.6562 26.4062C40.4168 26.4062 38.5938 24.5832 38.5938 22.3438C38.5938 20.1043 40.4168 18.2812 42.6562 18.2812C44.8957 18.2812 46.7188 20.1043 46.7188 22.3438C46.7188 24.5832 44.8957 26.4062 42.6562 26.4062Z" fill="#063B26"/>
</svg>
