<svg width="40" height="40" viewBox="0 0 40 40" fill="none" xmlns="http://www.w3.org/2000/svg">
<g clip-path="url(#clip0_2560_87)">
<path d="M32.6666 12.108C32.4363 12.108 32.2062 12.1205 31.9759 12.1391V3.14266C31.9759 1.54367 30.657 0.15625 28.9833 0.15625H10.7973C9.12992 0.15625 7.80469 1.56234 7.80469 3.14266V11.0752H2.83984C1.32172 11.0752 0.0898438 12.3072 0.0898438 13.8252V20.7623C0.0898438 22.2742 1.32172 23.5061 2.83984 23.5061H7.80477V36.864C7.80477 38.4443 9.13 39.8504 10.7974 39.8504H28.9834C30.657 39.8504 31.976 38.463 31.976 36.864V26.5485C32.2062 26.5734 32.4364 26.5859 32.6666 26.5859C36.661 26.5859 39.9087 23.3382 39.9087 19.3438C39.9086 15.3558 36.6609 12.108 32.6666 12.108ZM17.6225 2.89375H22.158C22.5002 2.89375 22.7802 3.17375 22.7802 3.51594C22.7802 3.85812 22.5003 4.13812 22.158 4.13812H17.6225C17.2803 4.13812 17.0003 3.85812 17.0003 3.51594C17.0003 3.17375 17.2803 2.89375 17.6225 2.89375ZM4.70008 14.5718H11.9857C12.3279 14.5718 12.6079 14.8518 12.6079 15.194C12.6079 15.5362 12.3279 15.8162 11.9857 15.8162H4.70008C4.35789 15.8162 4.07789 15.5363 4.07789 15.194C4.07797 14.8518 4.35789 14.5718 4.70008 14.5718ZM4.70008 19.1012C4.35789 19.1012 4.07789 18.8212 4.07789 18.4791C4.07789 18.1369 4.35789 17.8569 4.70008 17.8569H11.9857C12.3279 17.8569 12.6079 18.1369 12.6079 18.4791C12.6079 18.8212 12.3279 19.1012 11.9857 19.1012H4.70008ZM21.0009 37.0507H18.7798C18.4376 37.0507 18.1576 36.7708 18.1576 36.4285C18.1576 36.0863 18.4376 35.8063 18.7798 35.8063H21.0009C21.3431 35.8063 21.6231 36.0863 21.6231 36.4285C21.623 36.7708 21.343 37.0507 21.0009 37.0507ZM30.7316 33.0005H9.04906V23.5062C11.631 23.6244 12.4461 23.2075 13.1741 23.9852L14.5988 25.5158C15.3143 26.281 16.596 25.7709 16.596 24.7256V13.8252C16.596 12.3071 15.3641 11.0752 13.846 11.0752H9.04914V6.88188H30.7316V12.3756C27.6768 13.228 25.4245 16.0215 25.4245 19.3439C25.4245 22.6663 27.6768 25.466 30.7316 26.3122V33.0005ZM31.8141 19.3501C31.8141 19.5927 31.7644 19.8291 31.6835 20.0407L33.0772 20.6753C33.102 20.638 33.127 20.5945 33.1519 20.5509C33.8673 19.5616 35.2734 19.4559 36.1196 20.2959C36.8787 21.0549 36.8849 22.2868 36.1196 23.052C35.261 23.9106 33.83 23.7862 33.1332 22.7659C32.959 22.517 32.8532 22.2246 32.8159 21.9259L30.8373 21.0238C30.5512 21.1918 30.2214 21.2913 29.873 21.2913C28.8029 21.2913 27.9255 20.4203 27.9255 19.3502C27.9255 18.2738 28.8028 17.4027 29.873 17.4027C30.4018 17.4027 30.8871 17.6142 31.2355 17.9627L33.0212 17.0419C33.0025 16.9734 32.9776 16.905 32.9652 16.8366C32.8657 16.2642 33.0212 15.6794 33.3883 15.2376C34.5455 13.8502 36.8102 14.6714 36.8227 16.4695C36.8289 17.0481 36.5801 17.5956 36.1383 17.9752C35.4726 18.5352 34.4895 18.6035 33.7491 18.0685L31.7894 19.0826C31.8017 19.1697 31.8141 19.2568 31.8141 19.3501Z" fill="#030E09"/>
<path d="M35.2356 22.1703C34.9308 22.4751 34.4206 22.4503 34.1593 22.0645C33.9975 21.8343 34.0037 21.5045 34.1655 21.2806C34.7815 20.4282 35.9324 21.4735 35.2356 22.1703Z" fill="#030E09"/>
<path d="M30.5698 19.3515C30.5698 19.7372 30.2587 20.0483 29.873 20.0483C29.4873 20.0483 29.1699 19.7372 29.1699 19.3515C29.1699 18.9595 29.4873 18.6484 29.873 18.6484C30.2587 18.6484 30.5698 18.9595 30.5698 19.3515Z" fill="#030E09"/>
<path d="M35.5784 16.4798C35.5847 16.6914 35.4913 16.8843 35.3358 17.0211C34.919 17.3757 34.2782 17.1269 34.191 16.6167C34.1536 16.4052 34.2097 16.1937 34.3465 16.0319C34.7572 15.5342 35.5722 15.8266 35.5784 16.4798Z" fill="#030E09"/>
</g>
<defs>
<clipPath id="clip0_2560_87">
<rect width="40" height="40" fill="white"/>
</clipPath>
</defs>
</svg>
