<svg width="66" height="65" viewBox="0 0 66 65" fill="none" xmlns="http://www.w3.org/2000/svg">
<g clip-path="url(#clip0_2558_589)">
<path d="M64.191 5.58774C64.1 2.55471 61.6432 0.178779 58.6101 0.168623L38.8548 0.148438H38.8447C37.3686 0.148438 35.9329 0.744863 34.8916 1.78626L1.83125 34.8468C-0.352603 37.0305 -0.352603 40.5792 1.83125 42.753L22.2842 63.2161C24.4679 65.3998 28.0166 65.3998 30.2004 63.2161L63.2001 30.2163C64.2517 29.1648 64.838 27.7393 64.838 26.2632L64.838 26.0813L64.191 5.58774ZM61.7747 28.7807L28.7647 61.7904C27.3797 63.1755 25.115 63.1755 23.7197 61.7904L3.25667 41.3273C1.87162 39.9321 1.87162 37.6674 3.25667 36.2823L36.3172 3.21182C36.9844 2.55471 37.9045 2.17055 38.8447 2.17055H38.8548L58.6101 2.19073C60.5513 2.20089 62.1184 3.71734 62.179 5.65858L62.816 26.1418C62.8463 27.1225 62.4622 28.0931 61.7747 28.7807Z" fill="#030E09"/>
<path d="M43.2034 36.0792C41.606 35.3614 41.5958 33.0765 43.2034 32.3585C43.6483 32.1665 43.8809 31.6811 43.7696 31.2059C43.436 29.7703 42.88 28.4155 42.1115 27.1922C41.8486 26.7877 41.3431 26.6058 40.8982 26.7777C39.2502 27.4045 37.6326 25.797 38.2595 24.1591C38.4314 23.7041 38.2697 23.1986 37.8552 22.9358C36.6015 22.1574 35.2466 21.5911 33.8312 21.2777C33.3662 21.1665 32.891 21.3991 32.6888 21.8337C31.9508 23.4615 29.6759 23.4311 28.9682 21.8438C28.7761 21.3989 28.2908 21.1664 27.8156 21.2776C26.3698 21.6112 25.0151 22.1673 23.7917 22.9357C23.3772 23.1986 23.2154 23.7041 23.3872 24.159C24.0141 25.807 22.3863 27.4043 20.7485 26.7776C20.3036 26.6057 19.7879 26.7877 19.5352 27.1921C18.7669 28.4457 18.2007 29.8004 17.8772 31.2058C17.766 31.681 17.9985 32.1663 18.4434 32.3584C20.0407 33.0762 20.0509 35.3611 18.4434 36.079C17.9985 36.2711 17.766 36.7565 17.8772 37.2316C18.2108 38.6572 18.7669 40.0119 19.5352 41.2454C19.7879 41.6499 20.2935 41.8216 20.7485 41.6599C22.4268 41.0331 24.0039 42.6608 23.3772 44.2986C23.2053 44.7435 23.3872 45.2591 23.7917 45.5119C25.6115 46.6342 27.6234 47.2003 28.0482 47.2003C28.4423 47.2003 28.8064 46.9678 28.9682 46.6038C29.6759 45.0165 31.9507 44.9862 32.6888 46.6139C32.891 47.0487 33.3762 47.2811 33.8414 47.1699C35.267 46.8363 36.6116 46.2802 37.8552 45.5017C38.2697 45.2388 38.4314 44.7333 38.2595 44.2784C37.6428 42.6608 39.22 41.0331 40.8982 41.6599C41.3532 41.8216 41.8587 41.6497 42.1115 41.2454C42.88 40.0119 43.4359 38.6572 43.7696 37.2316C43.8807 36.7565 43.6483 36.2712 43.2034 36.0792ZM35.0546 38.4551C35.0546 38.4551 35.0546 38.4551 35.0444 38.4551C33.8816 39.6177 32.3552 40.194 30.8184 40.194C29.2918 40.194 27.765 39.6177 26.6024 38.4551C24.267 36.1195 24.267 32.3282 26.5923 29.9928C28.9277 27.6675 32.719 27.6675 35.0544 29.9928C37.38 32.3282 37.38 36.1195 35.0546 38.4551Z" fill="#030E09"/>
<path d="M55.6987 16.9851C53.5957 19.0881 50.1685 19.0881 48.0655 16.9953C45.9625 14.8823 45.9625 11.4549 48.0655 9.34179C50.1685 7.24897 53.5957 7.24896 55.6987 9.35194C57.8016 11.4549 57.8016 14.8823 55.6987 16.9851Z" fill="#030E09"/>
</g>
<defs>
<clipPath id="clip0_2558_589">
<rect width="65" height="65" fill="white" transform="translate(0.015625)"/>
</clipPath>
</defs>
</svg>
