<svg width="16" height="14" viewBox="0 0 16 14" fill="none" xmlns="http://www.w3.org/2000/svg">
<path d="M8.00027 11.4167L4.54194 13.5C4.38916 13.5972 4.22944 13.6389 4.06277 13.625C3.89611 13.6111 3.75027 13.5556 3.62527 13.4583C3.50027 13.3611 3.40305 13.2397 3.33361 13.0942C3.26416 12.9486 3.25027 12.7853 3.29194 12.6042L4.20861 8.66667L1.14611 6.02083C1.00722 5.89583 0.920552 5.75333 0.886107 5.59333C0.851663 5.43333 0.861941 5.27722 0.916941 5.125C0.971941 4.97278 1.05527 4.84778 1.16694 4.75C1.27861 4.65222 1.43139 4.58972 1.62527 4.5625L5.66694 4.20833L7.22944 0.5C7.29888 0.333333 7.40666 0.208333 7.55277 0.125C7.69889 0.0416665 7.84805 0 8.00027 0C8.1525 0 8.30166 0.0416665 8.44777 0.125C8.59388 0.208333 8.70166 0.333333 8.77111 0.5L10.3336 4.20833L14.3753 4.5625C14.5697 4.59028 14.7225 4.65278 14.8336 4.75C14.9447 4.84722 15.0281 4.97222 15.0836 5.125C15.1392 5.27778 15.1497 5.43417 15.1153 5.59417C15.0808 5.75417 14.9939 5.89639 14.8544 6.02083L11.7919 8.66667L12.7086 12.6042C12.7503 12.7847 12.7364 12.9481 12.6669 13.0942C12.5975 13.2403 12.5003 13.3617 12.3753 13.4583C12.2503 13.555 12.1044 13.6106 11.9378 13.625C11.7711 13.6394 11.6114 13.5978 11.4586 13.5L8.00027 11.4167Z" fill="#FF8800"/>
</svg>
