<svg width="30" height="30" viewBox="0 0 30 30" fill="none" xmlns="http://www.w3.org/2000/svg">
<circle cx="15.001" cy="15" r="15" fill="black"/>
<path d="M17.3152 11.4274H10.5417C10.305 11.4274 10.078 11.3334 9.91067 11.166C9.74331 10.9987 9.64929 10.7717 9.64929 10.535C9.64929 10.2983 9.74331 10.0713 9.91067 9.90396C10.078 9.7366 10.305 9.64258 10.5417 9.64258H19.466C19.5826 9.64399 19.6978 9.66824 19.8051 9.71397C20.0232 9.80453 20.1964 9.97782 20.287 10.1959C20.3327 10.3032 20.357 10.4184 20.3584 10.535V19.4593C20.3584 19.6959 20.2644 19.9229 20.097 20.0903C19.9297 20.2577 19.7027 20.3517 19.466 20.3517C19.2293 20.3517 19.0023 20.2577 18.8349 20.0903C18.6676 19.9229 18.5735 19.6959 18.5735 19.4593V12.6858L11.1753 20.0929C11.0924 20.1765 10.9937 20.2429 10.8849 20.2882C10.7762 20.3335 10.6595 20.3569 10.5417 20.3569C10.4239 20.3569 10.3073 20.3335 10.1985 20.2882C10.0898 20.2429 9.99105 20.1765 9.90809 20.0929C9.82445 20.0099 9.75805 19.9112 9.71275 19.8025C9.66744 19.6937 9.64411 19.5771 9.64411 19.4593C9.64411 19.3415 9.66744 19.2248 9.71275 19.1161C9.75805 19.0073 9.82445 18.9086 9.90809 18.8256L17.3152 11.4274Z" fill="white"/>
</svg>
