<svg width="24" height="24" viewBox="0 0 24 24" fill="none" xmlns="http://www.w3.org/2000/svg">
<path d="M8.00041 7C8.00041 6.73478 8.10576 6.48043 8.2933 6.29289C8.48084 6.10536 8.73519 6 9.00041 6H17.0004C17.2656 6 17.52 6.10536 17.7075 6.29289C17.8951 6.48043 18.0004 6.73478 18.0004 7V15C18.0004 15.2652 17.8951 15.5196 17.7075 15.7071C17.52 15.8946 17.2656 16 17.0004 16C16.7352 16 16.4808 15.8946 16.2933 15.7071C16.1058 15.5196 16.0004 15.2652 16.0004 15V9.414L7.70741 17.707C7.5188 17.8892 7.2662 17.99 7.00401 17.9877C6.74181 17.9854 6.491 17.8802 6.30559 17.6948C6.12018 17.5094 6.01501 17.2586 6.01273 16.9964C6.01045 16.7342 6.11125 16.4816 6.29341 16.293L14.5864 8H9.00041C8.73519 8 8.48084 7.89464 8.2933 7.70711C8.10576 7.51957 8.00041 7.26522 8.00041 7Z" fill="white"/>
</svg>
