<svg width="36" height="32" fill="none" xmlns="http://www.w3.org/2000/svg"><path d="M16.785 5.224c-.223.133-.405.255-.405.271 0 .062.611.945.918 1.327.652.812 1.765 1.781 2.652 2.31.968.578 1.907.953 3.061 1.225.684.161.79.17 2.171.171.799.001 1.433.018 1.41.037-.023.019-4.929 2.852-10.902 6.294a9876.143 9876.143 0 0 0-10.88 6.276c-.028.022.407.796.469.834.027.017 5.054-2.856 11.17-6.385 6.116-3.528 11.127-6.408 11.135-6.4.009.009-.16.279-.375.601-1.844 2.757-2.083 6.184-.644 9.23l.333.704.426-.236c.234-.13.424-.258.422-.285a6.278 6.278 0 0 0-.252-.568 10.218 10.218 0 0 1-.713-2.15c-.163-.776-.149-2.406.028-3.225.355-1.64 1.143-3.065 2.381-4.306.505-.507 1.563-1.373 1.918-1.572.087-.049.058-.127-.23-.621-.193-.33-.363-.558-.409-.547-.043.01-.346.141-.672.29-.719.328-1.827.704-2.54.862-2.702.598-5.458-.01-7.636-1.683-.795-.611-1.834-1.756-2.225-2.453-.076-.135-.153-.245-.172-.245-.019.001-.216.11-.439.244" fill-rule="evenodd" fill="#000"/></svg>