<svg width="45" height="33" viewBox="0 0 45 33" fill="none" xmlns="http://www.w3.org/2000/svg">
<path d="M27.8962 0.382812C26.0413 0.382812 24.2285 0.641826 22.4996 1.13876C20.7987 0.655801 18.9929 0.382812 17.103 0.382812C7.73091 0.382812 0.101562 6.89217 0.101562 14.8925C0.101562 19.904 3.16728 24.5936 8.13687 27.2254L8.2419 31.936C8.24893 32.4889 8.8719 32.8039 9.32683 32.503L14.0864 29.3393C14.5483 29.2902 15.8713 29.4023 17.1031 29.4023C18.993 29.4023 20.8059 29.1363 22.5066 28.6463C24.2354 29.1433 26.0484 29.4023 27.8962 29.4023C28.7921 29.4023 30.4789 29.2972 30.9129 29.3393L35.6725 32.503C36.1274 32.8109 36.7433 32.489 36.7574 31.936L36.8624 27.2323C41.8319 24.6006 44.8977 19.904 44.8977 14.8925C44.8977 6.89217 37.2683 0.382812 27.8962 0.382812ZM17.103 28.0024C15.6752 28.0024 14.2193 27.8274 13.6174 28.0094C13.5474 28.0234 13.4844 28.0584 13.4214 28.0934L9.6137 30.6341L9.52968 26.7845C9.52273 26.5185 9.37569 26.2875 9.14472 26.1685C4.4271 23.8167 1.5014 19.4911 1.5014 14.8925C1.5014 7.66912 8.50074 1.78265 17.103 1.78265C25.7123 1.78265 32.7117 7.66912 32.7117 14.8925C32.7117 22.1229 25.7124 28.0024 17.103 28.0024Z" fill="black"/>
<path d="M11.4333 14.4096C11.4333 15.8025 10.2994 16.9363 8.90654 16.9363C7.51365 16.9363 6.38672 15.8025 6.38672 14.4096C6.38672 13.0167 7.51365 11.8828 8.90654 11.8828C10.2994 11.8828 11.4333 13.0167 11.4333 14.4096Z" fill="black"/>
<path d="M19.6297 14.4096C19.6297 15.8025 18.4958 16.9363 17.1029 16.9363C15.71 16.9363 14.5762 15.8025 14.5762 14.4096C14.5762 13.0167 15.71 11.8828 17.1029 11.8828C18.4958 11.8828 19.6297 13.0167 19.6297 14.4096Z" fill="black"/>
<path d="M27.827 14.4096C27.827 15.8025 26.6931 16.9363 25.3002 16.9363C23.9073 16.9363 22.7734 15.8025 22.7734 14.4096C22.7734 13.0167 23.9073 11.8828 25.3002 11.8828C26.6931 11.8828 27.827 13.0167 27.827 14.4096Z" fill="black"/>
</svg>
