<svg width="120" height="120" viewBox="0 0 120 120" fill="none" xmlns="http://www.w3.org/2000/svg">
<path d="M69.0712 52.2352H68.6233V42.1189C68.6233 39.6364 65.8049 38.1992 63.7891 39.6924L52.7207 47.8491H46.188C43.4069 47.8491 41.1484 50.1263 41.1484 52.9074V59.7575C41.1484 61.624 42.175 63.229 43.687 64.1065L44.8068 74.3909C44.9561 75.9774 46.244 77.172 47.8305 77.172H48.5212C50.0891 77.172 51.377 75.9961 51.5263 74.4282L52.5902 64.797H52.7207L63.7891 72.9722C65.7862 74.4279 68.6233 73.0282 68.6233 70.5272V60.4107H69.0712C71.3296 60.4107 73.1589 58.5816 73.1589 56.3229C73.1587 54.0645 71.3296 52.2352 69.0712 52.2352ZM48.1663 70.7883L47.5131 64.797H48.8198L48.1663 70.7883ZM51.4701 61.0639C50.7609 61.0639 46.1877 61.0639 46.1877 61.0639C45.4785 61.0639 44.8813 60.4667 44.8813 59.7572V52.9071C44.8813 52.1792 45.4785 51.582 46.1877 51.582H51.4701V61.0639ZM64.8902 69.1271L55.203 61.9784V50.6675L64.8902 43.5188V69.1271ZM69.0712 56.6775H68.6233V55.9683H69.0712C69.258 55.9683 69.4258 56.1364 69.4258 56.3229C69.4258 56.5282 69.2765 56.6775 69.0712 56.6775Z" fill="#030E09"/>
<path d="M78.9247 61.4214C78.1463 62.0976 78.0624 63.2751 78.737 64.0553C79.4185 64.8374 80.5958 64.9143 81.3709 64.2431C85.4328 60.7232 85.8835 54.5575 82.3496 50.4794C81.6716 49.701 80.4941 49.6171 79.7157 50.2917C78.9374 50.9678 78.8535 52.1453 79.528 52.9256C81.6957 55.4233 81.4454 59.2413 78.9247 61.4214Z" fill="#030E09"/>
<path d="M75.153 59.9175C75.8345 60.6996 77.0118 60.7765 77.7869 60.1052C79.5759 58.5541 79.7692 55.8471 78.2153 54.0591C77.5408 53.2772 76.3616 53.1952 75.5833 53.8732C74.8049 54.5477 74.721 55.7269 75.3974 56.5052C75.5877 56.7251 75.5819 57.0762 75.3409 57.2836C74.5623 57.9581 74.4784 59.1375 75.153 59.9175Z" fill="#030E09"/>
<path d="M97.4233 57.9657C97.4233 57.3685 97.4233 57.1817 97.4233 57.1817V9.26868C97.4233 5.36775 94.9223 2.08251 91.4505 0.832121C88.4828 -0.231707 91.7678 0.496262 33.7009 0.272199C31.2187 0.272199 28.9788 1.28001 27.3363 2.904C25.7125 4.52775 24.7045 6.78642 24.7045 9.26892V22.1106H12.2547C8.9882 22.1106 6.33789 24.7609 6.33789 28.0086V41.2049C6.33789 44.4526 8.9882 47.1029 12.2547 47.1029H24.7045V110.732C24.7045 113.214 25.7123 115.473 27.3363 117.097C28.9788 118.72 31.2187 119.728 33.7009 119.728C56.2295 119.728 69.6684 119.766 77.7878 119.766C91.2079 119.766 90.0693 119.672 91.4505 119.169C94.9223 117.918 97.4233 114.633 97.4233 110.732V93.9709C106.532 93.0376 113.662 85.3102 113.662 75.9777C113.662 66.6263 106.532 58.899 97.4233 57.9657ZM54.2512 8.52197H67.8953C68.9219 8.52197 69.7619 9.36197 69.7619 10.3885C69.7619 11.4151 68.9221 12.2551 67.8953 12.2551H54.2512C53.2059 12.2551 52.3846 11.4151 52.3846 10.3885C52.3846 9.36197 53.2059 8.52197 54.2512 8.52197ZM15.7825 30.6214H29.6507C30.6773 30.6214 31.5173 31.4612 31.5173 32.488C31.5173 33.5145 30.6773 34.3545 29.6507 34.3545H15.7825C14.7559 34.3545 13.9159 33.5145 13.9159 32.488C13.9159 31.4612 14.7559 30.6214 15.7825 30.6214ZM15.7825 40.6072C14.7559 40.6072 13.9159 39.7672 13.9159 38.7406C13.9159 37.7141 14.7559 36.8741 15.7825 36.8741H29.6507C30.6773 36.8741 31.5173 37.7141 31.5173 38.7406C31.5173 39.7672 30.6773 40.6072 29.6507 40.6072H15.7825ZM64.4048 111.292H57.7413C56.6959 111.292 55.8747 110.452 55.8747 109.425C55.8747 108.399 56.6959 107.559 57.7413 107.559H64.4048C65.4313 107.559 66.2713 108.399 66.2713 109.425C66.2713 110.452 65.4313 111.292 64.4048 111.292ZM93.6902 99.122H28.4373V47.1027H29.8185C31.3677 47.1027 31.7784 48.4466 34.1116 50.705C35.8848 52.6088 39.0951 51.3584 39.0951 48.7452V28.0084C39.0951 24.7606 36.4448 22.1103 33.1783 22.1103H28.4373V20.5051H93.6902V57.9842C84.6004 58.9175 77.4702 66.6261 77.4702 75.9774C77.4702 85.31 84.6004 93.0186 93.6902 93.9519V99.122ZM102.388 78.0678L93.6156 84.8992C91.8611 86.2618 89.3228 85.0112 89.3228 82.79V69.1459C89.3228 66.9247 91.8613 65.6743 93.6156 67.0367L102.388 73.8683C103.751 74.9321 103.751 77.004 102.388 78.0678Z" fill="#030E09"/>
</svg>
