<svg width="40" height="40" viewBox="0 0 40 40" fill="none" xmlns="http://www.w3.org/2000/svg">
<path d="M37.0155 1.85156H19.1095C17.5168 1.85156 16.2227 3.15187 16.2227 4.74461V16.2983C14.7605 15.6326 13.1554 15.2841 11.5253 15.2841C5.22273 15.2841 0.0898438 20.4108 0.0898438 26.7134C0.0898438 33.0159 5.22273 38.1488 11.5253 38.1488C17.8279 38.1488 22.9545 33.0159 22.9545 26.7134C22.9545 23.7021 21.8035 20.9148 19.7192 18.7683L20.808 17.5986H37.0155C38.6145 17.5986 39.9086 16.3045 39.9086 14.7117V4.74461C39.9086 3.15187 38.6145 1.85156 37.0155 1.85156ZM21.7102 26.7134C21.7102 32.3316 17.1434 36.9045 11.5253 36.9045C5.90711 36.9045 1.33422 32.3316 1.33422 26.7134C1.33422 21.0952 5.90711 16.5285 11.5253 16.5285C13.1741 16.5285 14.7855 16.9267 16.2227 17.6795V19.5025C16.2227 20.5851 17.5479 21.1015 18.282 20.3175L18.8731 19.6766C20.7023 21.5866 21.7102 24.0567 21.7102 26.7134ZM38.6642 14.7117C38.6642 15.6139 37.9238 16.3542 37.0155 16.3542H20.5343C20.3663 16.3542 20.1984 16.4289 20.0802 16.5533C20.0241 16.6155 17.6163 19.1975 17.467 19.3655V4.74461C17.467 3.83625 18.2012 3.09586 19.1095 3.09586H37.0155C37.9238 3.09586 38.6642 3.83625 38.6642 4.74461V14.7117Z" fill="#030E09"/>
<path d="M27.2586 9.52145L25.7903 10.9525L26.1388 12.9682C26.2259 13.4784 25.6908 13.8642 25.2366 13.6278L23.4199 12.6696L21.6031 13.6278C21.1489 13.8642 20.6138 13.4785 20.7009 12.9682L21.0494 10.9525L19.5811 9.52145C19.214 9.16059 19.4193 8.53848 19.9295 8.46379L21.9578 8.16512L22.8599 6.32973C23.0902 5.86926 23.7497 5.86926 23.9799 6.32973L24.882 8.16512L26.9102 8.46379C27.4203 8.53848 27.6257 9.16066 27.2586 9.52145Z" fill="#030E09"/>
<path d="M36.5477 9.52469L35.0794 10.9557L35.4216 12.9715C35.5149 13.4816 34.9799 13.8674 34.5195 13.631L32.7089 12.6729L30.8922 13.631C30.4381 13.8674 29.9029 13.4817 29.99 12.9715L30.3384 10.9557L28.8702 9.52469C28.5031 9.16383 28.7084 8.54172 29.2186 8.46703L31.2469 8.16836L32.1491 6.33297C32.3606 5.90984 33.0574 5.90984 33.269 6.33297L34.1712 8.16836L36.1994 8.46703C36.7095 8.54172 36.9148 9.16391 36.5477 9.52469Z" fill="#030E09"/>
<path d="M14.9721 23.5718C14.9721 25.4756 13.4229 27.0248 11.5253 27.0248C9.62148 27.0248 8.07227 25.4756 8.07227 23.5718C8.07227 21.6742 9.62148 20.125 11.5253 20.125C13.4229 20.125 14.9721 21.6741 14.9721 23.5718Z" fill="#030E09"/>
<path d="M16.0286 33.7348H7.01348C6.242 33.7348 5.64473 33.0504 5.75044 32.2851C6.16106 29.4355 8.64356 27.2891 11.5242 27.2891C14.4048 27.2891 16.8811 29.4355 17.2917 32.2851C17.3975 33.0503 16.8001 33.7348 16.0286 33.7348Z" fill="#030E09"/>
</svg>
