<svg width="192" height="200" viewBox="0 0 192 200" fill="none" xmlns="http://www.w3.org/2000/svg">
<path d="M107.312 63.764L107.48 64.6694L108.148 64.0356L153.166 21.3176L126.45 77.3334L126.054 78.1645L126.967 78.0443L188.497 69.946L133.958 99.5606L133.149 100L133.958 100.439L188.497 130.054L126.967 121.956L126.054 121.836L126.45 122.667L153.166 178.682L108.148 135.964L107.48 135.331L107.312 136.236L96 197.257L84.6882 136.236L84.5204 135.331L83.8524 135.964L38.8339 178.682L65.5496 122.667L65.946 121.836L65.0331 121.956L3.50329 130.054L58.042 100.439L58.8512 100L58.042 99.5606L3.50327 69.946L65.0331 78.0443L65.946 78.1645L65.5496 77.3334L38.8339 21.3176L83.8524 64.0356L84.5204 64.6694L84.6882 63.764L96 2.74317L107.312 63.764Z" stroke="#063B26"/>
</svg>
