<svg width="40" height="40" viewBox="0 0 40 40" fill="none" xmlns="http://www.w3.org/2000/svg">
<path d="M36.5862 1.45312H3.41227C1.57687 1.45312 0.0898438 2.94008 0.0898438 4.76922V25.9478C0.0898438 27.7769 1.5768 29.2702 3.41227 29.2702H17.4234V34.1915H14.5304C13.8148 34.1915 13.2362 34.7701 13.2362 35.4856V37.2526C13.2362 37.968 13.8148 38.5467 14.5304 38.5467H25.468C26.1836 38.5467 26.7622 37.9681 26.7622 37.2526V35.4856C26.7622 34.7701 26.1836 34.1915 25.468 34.1915H22.575V29.2702H36.5862C38.4216 29.2702 39.9086 27.7769 39.9086 25.9478V4.76922C39.9086 2.94008 38.4216 1.45312 36.5862 1.45312ZM38.6642 25.9478C38.6642 27.0926 37.7309 28.0259 36.5862 28.0259H3.41227C2.2675 28.0259 1.33422 27.0926 1.33422 25.9478V4.76922C1.33422 3.62445 2.2675 2.69742 3.41227 2.69742H36.5862C37.731 2.69742 38.6642 3.62445 38.6642 4.76922V25.9478Z" fill="#030E09"/>
<path d="M34.5835 5.64961H30.0603C29.9732 5.40695 29.7492 5.22656 29.4755 5.22656C29.1333 5.22656 28.8533 5.50656 28.8533 5.84875V12.7797H28.2809C27.9387 12.7797 27.6587 13.0596 27.6587 13.4019V25.8327H24.971V17.869C24.971 17.5268 24.6973 17.2468 24.3488 17.2468H21.9659C21.6238 17.2468 21.3438 17.5267 21.3438 17.869V25.8327H18.656V16.6495C18.656 16.3073 18.376 16.0273 18.0338 16.0273H15.6509C15.3025 16.0273 15.0288 16.3073 15.0288 16.6495V25.8327H12.341V20.3079C12.341 19.9657 12.061 19.6857 11.7188 19.6857H9.32969C8.9875 19.6857 8.7075 19.9657 8.7075 20.3079V25.8327H5.93273C5.59055 25.8327 5.31055 26.1065 5.31055 26.4549C5.31055 26.7971 5.59055 27.0771 5.93273 27.0771H34.0671C34.4093 27.0771 34.6893 26.7971 34.6893 26.4549C34.6893 26.1065 34.4093 25.8327 34.0671 25.8327H31.2923V13.4019C31.2923 13.0597 31.0123 12.7797 30.6701 12.7797H30.0977V11.4669H34.5835C35.3239 11.4669 35.9273 10.8634 35.9273 10.1292V6.99352C35.9274 6.25312 35.3239 5.64961 34.5835 5.64961ZM17.4117 25.8327H16.2731V17.2717H17.4117V25.8327ZM30.048 25.8327H28.9032V14.0241H30.048V25.8327Z" fill="#030E09"/>
</svg>
