<svg width="45" height="45" viewBox="0 0 45 45" fill="none" xmlns="http://www.w3.org/2000/svg">
<path d="M41.3824 2.63281H3.61684C1.67568 2.63281 0.101562 4.20685 0.101562 6.148V38.8554C0.101562 40.7904 1.67568 42.3706 3.61684 42.3706H41.3824C43.3235 42.3706 44.8976 40.7904 44.8976 38.8554V6.148C44.8977 4.20685 43.3235 2.63281 41.3824 2.63281ZM12.321 6.68316H13.9511C14.2933 6.68316 14.5733 6.96318 14.5733 7.30534C14.5733 7.6475 14.2933 7.92752 13.9511 7.92752H12.321C11.9788 7.92752 11.6988 7.6475 11.6988 7.30534C11.6988 6.9631 11.9788 6.68316 12.321 6.68316ZM8.41373 6.68316H10.0438C10.386 6.68316 10.666 6.96318 10.666 7.30534C10.666 7.6475 10.386 7.92752 10.0438 7.92752H8.41373C8.07157 7.92752 7.79155 7.6475 7.79155 7.30534C7.79155 6.9631 8.07157 6.68316 8.41373 6.68316ZM4.50655 6.68316H6.13666C6.48506 6.68316 6.75884 6.96318 6.75884 7.30534C6.75884 7.6475 6.48506 7.92752 6.13666 7.92752H4.50655C4.16439 7.92752 3.88438 7.6475 3.88438 7.30534C3.88438 6.9631 4.16439 6.68316 4.50655 6.68316ZM43.6533 38.8554C43.6533 40.1059 42.633 41.1263 41.3824 41.1263H3.61684C2.36624 41.1263 1.34592 40.1059 1.34592 38.8554V11.9778H43.6533V38.8554Z" fill="black"/>
<path d="M35.6088 28.7363C34.6569 28.3071 34.0409 27.3551 34.0409 26.3161C34.0409 25.2771 34.6568 24.3251 35.6088 23.8959C35.8825 23.7714 36.0256 23.479 35.9634 23.1866C35.615 21.7058 35.0364 20.2997 34.2337 19.0056C34.072 18.7567 33.7609 18.651 33.4809 18.7567C32.5041 19.1238 31.3966 18.8874 30.6624 18.1533C29.9283 17.4191 29.6919 16.3116 30.059 15.3286C30.1647 15.0549 30.059 14.7376 29.8038 14.5821C28.516 13.7795 27.1099 13.1946 25.6291 12.8525C25.3367 12.784 25.0443 12.9333 24.9198 13.2009C24.4906 14.159 23.5386 14.7688 22.4996 14.7688C21.4606 14.7688 20.5086 14.159 20.0794 13.2009C19.955 12.9333 19.6625 12.7903 19.3701 12.8525C17.8893 13.1946 16.4832 13.7795 15.1954 14.5821C14.9403 14.7377 14.8345 15.0549 14.9403 15.3286C15.3136 16.3117 15.0772 17.4191 14.3368 18.1533C13.6026 18.8874 12.4951 19.1238 11.5184 18.7567C11.2384 18.651 10.9273 18.7567 10.7717 19.0056C9.96297 20.2997 9.3843 21.7058 9.04214 23.1866C8.97367 23.4728 9.11676 23.7714 9.39054 23.8959C10.3425 24.3251 10.9584 25.2708 10.9584 26.3161C10.9584 27.3551 10.3425 28.307 9.39054 28.7363C9.11676 28.8546 8.97367 29.1532 9.0359 29.4456C9.3843 30.9264 9.96297 32.3325 10.7655 33.6203C10.9273 33.8754 11.2384 33.9812 11.5184 33.8754C12.4951 33.5021 13.6026 33.7386 14.3368 34.4789C15.0772 35.2131 15.3136 36.3205 14.9403 37.2973C14.8345 37.5774 14.9403 37.8884 15.1954 38.044C16.4832 38.8527 17.8894 39.4314 19.3701 39.7798C19.6625 39.842 19.9549 39.6989 20.0794 39.4252C20.5086 38.4732 21.4606 37.8573 22.4996 37.8573C23.5448 37.8573 24.4905 38.4732 24.9198 39.4252C25.0256 39.6554 25.2496 39.7922 25.486 39.7922C25.8033 39.7922 27.9 39.2385 29.8101 38.0439C30.059 37.8883 30.1647 37.5773 30.059 37.2972C29.6919 36.3204 29.9283 35.213 30.6624 34.4789C31.3966 33.7385 32.5041 33.502 33.4809 33.8753C33.7609 33.9811 34.072 33.8753 34.2337 33.6203C35.0363 32.3324 35.6211 30.9262 35.9634 29.4455C36.0256 29.1532 35.8825 28.8546 35.6088 28.7363ZM33.4187 32.5564C32.1184 32.2578 30.7372 32.6435 29.7853 33.5955C28.8271 34.5536 28.4414 35.9348 28.7401 37.2351C27.8193 37.7639 26.8363 38.1683 25.8097 38.4484C25.1004 37.3222 23.856 36.6129 22.4997 36.6129C21.1496 36.6129 19.899 37.3222 19.1897 38.4484C18.1632 38.1683 17.1801 37.7639 16.2594 37.2351C16.558 35.9348 16.1723 34.5536 15.2203 33.5955C14.2622 32.6435 12.881 32.2578 11.5807 32.5564C11.0518 31.6294 10.6475 30.6464 10.3674 29.6198C11.4936 28.9168 12.2029 27.6662 12.2029 26.3161C12.2029 24.9598 11.4936 23.7154 10.3674 23.0061C10.6475 21.9796 11.0518 20.9965 11.5807 20.0757C12.881 20.3743 14.2622 19.9886 15.2203 19.0305C16.1723 18.0786 16.558 16.6974 16.2594 15.3971C17.1802 14.8683 18.1632 14.4576 19.196 14.1776C19.899 15.31 21.1496 16.013 22.4997 16.013C23.856 16.013 25.1004 15.31 25.8097 14.1776C26.8362 14.4576 27.8193 14.8682 28.7401 15.3971C28.4415 16.6974 28.8272 18.0786 29.7853 19.0305C30.7372 19.9886 32.1184 20.3744 33.4187 20.0695C33.9475 20.9966 34.3519 21.9796 34.6319 23.0124C33.5058 23.7154 32.7965 24.9659 32.7965 26.3161C32.7965 27.6662 33.5058 28.9168 34.6319 29.6198C34.3582 30.6464 33.9476 31.6356 33.4187 32.5564Z" fill="black"/>
<path d="M22.4992 17.4766C17.6276 17.4766 13.6582 21.4397 13.6582 26.3113C13.6582 31.1891 17.6276 35.1585 22.4992 35.1585C27.3771 35.1585 31.3402 31.1891 31.3402 26.3113C31.3402 21.4397 27.3771 17.4766 22.4992 17.4766ZM22.4992 33.9142C18.312 33.9142 14.9026 30.5048 14.9026 26.3113C14.9026 22.1241 18.312 18.7209 22.4992 18.7209C26.6926 18.7209 30.0959 22.1242 30.0959 26.3113C30.0959 30.5048 26.6926 33.9142 22.4992 33.9142Z" fill="black"/>
<path d="M25.742 26.9976L20.8207 22.1012C20.2918 21.5786 19.3959 21.871 19.2839 22.6051L18.7924 25.884L17.4236 27.259C16.8885 27.7941 16.8948 28.6589 17.4298 29.1939L18.6555 30.4196C18.979 30.7431 19.4642 30.9111 19.9994 30.7618L21.4117 32.1804C21.9468 32.7092 22.8116 32.703 23.3405 32.1741C23.8693 31.6453 23.8693 30.7804 23.3405 30.2516L22.1086 29.0197L25.2381 28.5407C25.9722 28.4224 26.2646 27.5265 25.742 26.9976ZM19.7132 29.5361C19.6635 29.5858 19.5825 29.5858 19.5328 29.5361L18.3071 28.3166C18.2573 28.2669 18.2573 28.186 18.3071 28.1362L19.3834 27.0536L20.7895 28.4597L19.7132 29.5361ZM22.4632 31.1288C22.5067 31.1786 22.5067 31.2533 22.4632 31.2968C22.4134 31.3404 22.3387 31.3404 22.2952 31.2968L21.0011 30.0089L21.1691 29.841L22.4632 31.1288ZM21.8846 27.794L20.0429 25.9586L20.4163 23.4512L24.3857 27.4083L21.8846 27.794Z" fill="black"/>
<path d="M24.4894 20.7422C24.1454 20.7422 23.8672 21.0205 23.8672 21.3644C23.8672 21.7083 24.1454 21.9865 24.4894 21.9865C25.7264 21.9865 26.7332 22.9927 26.7332 24.2298C26.7332 24.5737 27.0115 24.852 27.3554 24.852C27.6993 24.852 27.9776 24.5737 27.9776 24.2298C27.9775 22.3067 26.4129 20.7422 24.4894 20.7422Z" fill="black"/>
<path d="M24.7457 24.2351C24.7457 24.579 25.024 24.8573 25.3679 24.8573C25.7118 24.8573 25.9901 24.579 25.9901 24.2351C25.9901 23.4076 25.3169 22.7344 24.4894 22.7344C24.1454 22.7344 23.8672 23.0126 23.8672 23.3566C23.8672 23.7005 24.1454 23.9787 24.4894 23.9787C24.6309 23.9786 24.7457 24.0935 24.7457 24.2351Z" fill="black"/>
</svg>
