<svg width="24" height="24" viewBox="0 0 24 24" fill="none" xmlns="http://www.w3.org/2000/svg">
<path d="M20.9512 18.8582C23.765 15.4005 23.5457 11.5602 23.5363 11.6068C23.5363 11.6022 23.5363 11.6022 23.5363 11.5975C23.5317 5.23744 18.3568 0.0625 11.9967 0.0625C5.63666 0.0625 0.461719 5.23744 0.457031 11.5975V11.6068V11.6115C0.461719 18.0136 5.65523 23.1465 11.9967 23.1465C14.0685 23.1465 16.173 22.4512 16.5603 22.2086C17.0409 22.0033 17.4889 21.7606 17.9135 21.504L19.9293 23.5245C20.4752 24.0704 21.3665 24.0704 21.9125 23.5245L22.757 22.6799C23.2983 22.1386 23.303 21.252 22.7664 20.706L20.9512 18.8582ZM21.0072 6.01199C21.9404 7.51451 22.5097 9.26441 22.5891 11.1402H18.0954C18.0581 9.27367 17.7968 7.53314 17.3582 6.01199H21.0072ZM11.9967 0.995781C13.6113 0.995781 15.0811 2.61033 16.0377 5.07877H7.95574C8.91228 2.61033 10.3822 0.995781 11.9967 0.995781ZM2.98617 6.01199H6.63522C6.19658 7.5332 5.93525 9.27367 5.89793 11.1402H1.40432C1.48359 9.26441 2.05289 7.51457 2.98617 6.01199ZM3.63943 18.1303H6.94781C7.50779 19.6981 8.25902 20.9534 9.12697 21.8166C6.96645 21.21 5.04398 19.9268 3.63943 18.1303ZM13.9192 15.2372L14.2972 17.197H7.62439C7.14375 15.6525 6.87311 13.8979 6.83578 12.0735H17.1575C17.1342 13.156 17.0269 14.2106 16.8449 15.2092L14.4791 14.6959C14.1525 14.6212 13.8538 14.9059 13.9192 15.2372ZM14.8758 21.812C14.9644 21.7233 15.0531 21.6253 15.1371 21.532L15.1511 21.602C15.1604 21.6393 15.1791 21.6766 15.1884 21.7139C15.0857 21.7466 14.9831 21.7839 14.8758 21.812ZM22.0992 22.0172L21.2499 22.8665C21.0679 23.0485 20.7739 23.0485 20.592 22.8665L17.9368 20.2114C17.7549 20.0294 17.4609 20.0294 17.2789 20.2114L16.0983 21.3919C16.0843 21.3966 16.075 21.4012 16.0656 21.4059L14.9691 15.7551L20.5219 16.9683L19.4674 18.0229C19.2854 18.2049 19.2854 18.4942 19.4674 18.6808L22.1038 21.3593C22.2811 21.5413 22.2811 21.8353 22.0992 22.0172Z" fill="#063B26"/>
</svg>
